<svg width="80" height="72" viewBox="0 0 80 72" fill="none" xmlns="http://www.w3.org/2000/svg">
<g clip-path="url(#clip0_227_22679)">
<mask id="mask0_227_22679" style="mask-type:alpha" maskUnits="userSpaceOnUse" x="2" y="-1" width="73" height="73">
<path d="M38.0632 72C30.943 72.0001 23.9827 69.8888 18.0624 65.9332C12.1422 61.9775 7.52789 56.3551 4.80304 49.777C2.07818 43.1988 1.36517 35.9604 2.75417 28.977C4.14316 21.9937 7.57177 15.579 12.6064 10.5442C17.6411 5.50947 24.0557 2.08072 31.039 0.691574C38.0224 -0.69757 45.2608 0.0152853 51.839 2.73999C58.4172 5.4647 64.0397 10.0789 67.9955 15.9991C71.9513 21.9192 74.0627 28.8795 74.0628 35.9996C74.0521 45.5441 70.2559 54.6947 63.507 61.4437C56.7581 68.1928 47.6077 71.9892 38.0632 72Z" fill="#FAF9F7"/>
</mask>
<g mask="url(#mask0_227_22679)">
<path d="M38.0632 72C30.943 72.0001 23.9827 69.8888 18.0624 65.9332C12.1422 61.9775 7.52789 56.3551 4.80304 49.777C2.07818 43.1988 1.36517 35.9604 2.75417 28.977C4.14316 21.9937 7.57177 15.579 12.6064 10.5442C17.6411 5.50947 24.0557 2.08072 31.039 0.691574C38.0224 -0.69757 45.2608 0.0152853 51.839 2.73999C58.4172 5.4647 64.0397 10.0789 67.9955 15.9991C71.9513 21.9192 74.0627 28.8795 74.0628 35.9996C74.0521 45.5441 70.256 54.6947 63.507 61.4437C56.7581 68.1928 47.6077 71.9892 38.0632 72Z" fill="#FAF9F7"/>
<path d="M77.8543 42.6578H0V44.566H77.8543V42.6578Z" fill="#515151"/>
<path d="M77.8543 50.4918H0V52.4H77.8543V50.4918Z" fill="#515151"/>
<path d="M77.8543 58.3256H0V60.2337H77.8543V58.3256Z" fill="#515151"/>
<path d="M77.8543 66.1597H0V68.0679H77.8543V66.1597Z" fill="#515151"/>
<path d="M79.3754 34.8239H39.9521V36.732H79.3754V34.8239Z" fill="#515151"/>
<path d="M79.3754 26.9897H39.9521V28.8979H79.3754V26.9897Z" fill="#515151"/>
<path d="M79.3754 19.1558H39.9521V21.0639H79.3754V19.1558Z" fill="#515151"/>
<path d="M79.3754 11.3219H39.9521V13.2301H79.3754V11.3219Z" fill="#515151"/>
<path d="M79.3754 3.48792H39.9521V5.3961H79.3754V3.48792Z" fill="#515151"/>
<path d="M20.232 10.7456L22.0221 14.3724L26.0271 14.9552L23.1283 17.7789L23.8122 21.7657L20.232 19.8824L16.6519 21.7657L17.3358 17.7789L14.437 14.9552L18.442 14.3724L20.232 10.7456Z" fill="white"/>
<path d="M16.6511 22.6733C16.519 22.6735 16.3885 22.6447 16.2687 22.5891C16.149 22.5334 16.0428 22.4523 15.9577 22.3513C15.8727 22.2503 15.8107 22.1319 15.7762 22.0044C15.7417 21.8769 15.7355 21.7434 15.7581 21.6133L16.3601 18.0943L13.8051 15.6038C13.6842 15.4858 13.5987 15.3363 13.5582 15.1723C13.5177 15.0083 13.5238 14.8362 13.5759 14.6755C13.6279 14.5148 13.7239 14.3718 13.8528 14.2627C13.9818 14.1536 14.1387 14.0827 14.3059 14.058L17.8399 13.5446L19.4201 10.3429C19.5029 10.2011 19.6215 10.0834 19.764 10.0016C19.9064 9.91986 20.0678 9.87683 20.2321 9.87683C20.3964 9.87683 20.5578 9.91986 20.7002 10.0016C20.8427 10.0834 20.9612 10.2011 21.0441 10.3429L22.6243 13.5446L26.1583 14.058C26.3255 14.0827 26.4824 14.1535 26.6114 14.2626C26.7404 14.3717 26.8364 14.5147 26.8885 14.6754C26.9406 14.8361 26.9467 15.0082 26.9062 15.1723C26.8657 15.3363 26.7802 15.4858 26.6593 15.6038L24.1043 18.0943L24.7063 21.6133C24.7348 21.78 24.716 21.9513 24.6522 22.1079C24.5884 22.2645 24.4821 22.4001 24.3453 22.4995C24.2084 22.5988 24.0465 22.6579 23.8779 22.6701C23.7092 22.6823 23.5405 22.6471 23.3909 22.5684L20.2304 20.9076L17.0733 22.5684C16.9432 22.6373 16.7983 22.6733 16.6511 22.6733ZM20.2307 18.9761C20.3779 18.9763 20.5229 19.0123 20.6532 19.081L22.6088 20.1095L22.237 17.9311C22.2117 17.7864 22.2222 17.6376 22.2676 17.4979C22.3129 17.3581 22.3918 17.2316 22.4974 17.1293L24.0776 15.5885L21.8894 15.2699C21.7442 15.2486 21.6064 15.1924 21.4879 15.106C21.3693 15.0196 21.2736 14.9057 21.2088 14.774L20.2296 12.7943L19.2533 14.774C19.1885 14.9057 19.0928 15.0196 18.9742 15.106C18.8557 15.1924 18.7179 15.2486 18.5727 15.2699L16.3845 15.5885L17.9647 17.1293C18.0702 17.2316 18.1491 17.3581 18.1946 17.4979C18.24 17.6376 18.2505 17.7863 18.2253 17.9311L17.8536 20.1072L19.8087 19.081C19.9387 19.0124 20.0836 18.9764 20.2307 18.9761Z" fill="#515151"/>
<path d="M29.9726 22.7216L31.7627 26.3509L35.7676 26.9338L32.8714 29.7574L33.5553 33.7443L29.9726 31.861L26.3925 33.7443L27.0764 29.7574L24.1802 26.9338L28.1825 26.3509L29.9726 22.7216Z" fill="white"/>
<path d="M33.5551 34.6507C33.408 34.6507 33.263 34.6152 33.1326 34.5471L29.9722 32.8863L26.8117 34.5471C26.6619 34.6259 26.4931 34.6612 26.3243 34.649C26.1554 34.6369 25.9934 34.5777 25.8565 34.4782C25.7196 34.3787 25.6133 34.2428 25.5495 34.086C25.4858 33.9292 25.4673 33.7577 25.496 33.5909L26.1006 30.073L23.5456 27.5812C23.4247 27.4631 23.3393 27.3137 23.2988 27.1497C23.2584 26.9857 23.2646 26.8137 23.3166 26.653C23.3687 26.4923 23.4647 26.3494 23.5936 26.2403C23.7226 26.1312 23.8795 26.0603 24.0466 26.0356L27.5801 25.5219L29.1603 22.3219C29.2434 22.1803 29.362 22.0629 29.5045 21.9813C29.6469 21.8997 29.8083 21.8568 29.9724 21.8568C30.1366 21.8568 30.2979 21.8997 30.4403 21.9813C30.5828 22.0629 30.7015 22.1803 30.7845 22.3219L32.3648 25.5219L35.8964 26.0356C36.0635 26.0603 36.2204 26.1312 36.3494 26.2403C36.4783 26.3494 36.5743 26.4923 36.6264 26.653C36.6785 26.8137 36.6846 26.9857 36.6442 27.1497C36.6037 27.3137 36.5183 27.4631 36.3975 27.5812L33.8422 30.073L34.4468 33.5909C34.4694 33.7211 34.4632 33.8545 34.4288 33.982C34.3943 34.1095 34.3323 34.2279 34.2473 34.3289C34.1622 34.4299 34.056 34.511 33.9362 34.5666C33.8164 34.6222 33.6859 34.6509 33.5538 34.6507H33.5551ZM29.9729 30.9548C30.12 30.9551 30.2649 30.9907 30.3954 31.0584L32.351 32.0869L31.9764 29.9108C31.9512 29.7659 31.9617 29.6169 32.0071 29.477C32.0525 29.337 32.1315 29.2102 32.2371 29.1078L33.8173 27.5646L31.6314 27.247C31.4863 27.2257 31.3485 27.1695 31.2299 27.0831C31.1113 26.9967 31.0156 26.8828 30.9509 26.7512L29.9719 24.7704L28.9929 26.7512C28.9282 26.8828 28.8324 26.9967 28.7139 27.0831C28.5953 27.1694 28.4575 27.2257 28.3124 27.247L26.1265 27.5646L27.7067 29.1078C27.8123 29.2102 27.8913 29.337 27.9367 29.477C27.9821 29.6169 27.9926 29.7659 27.9673 29.9108L27.5928 32.0869L29.5483 31.0584C29.6795 30.9903 29.8251 30.9548 29.9729 30.9548Z" fill="#515151"/>
<path d="M10.4918 22.7216L12.2819 26.3509L16.2842 26.9338L13.388 29.7574L14.0719 33.7443L10.4918 31.861L6.90909 33.7443L7.59299 29.7574L4.69678 26.9338L8.69915 26.3509L10.4918 22.7216Z" fill="white"/>
<path d="M6.90747 34.6507C6.77541 34.6509 6.64492 34.6222 6.52514 34.5665C6.40536 34.5109 6.29919 34.4298 6.21409 34.3288C6.12898 34.2278 6.06699 34.1095 6.03247 33.982C5.99795 33.8545 5.99173 33.7211 6.01425 33.5909L6.61888 30.073L4.06125 27.5812C3.94018 27.4631 3.85454 27.3135 3.81402 27.1493C3.77349 26.9851 3.77969 26.8129 3.83191 26.6521C3.88414 26.4912 3.9803 26.3482 4.10955 26.2391C4.23879 26.13 4.39596 26.0593 4.5633 26.0349L8.09756 25.5219L9.67779 22.3219C9.76088 22.1803 9.87953 22.0629 10.022 21.9813C10.1644 21.8997 10.3258 21.8568 10.4899 21.8568C10.6541 21.8568 10.8154 21.8997 10.9578 21.9813C11.1003 22.0629 11.219 22.1803 11.3021 22.3219L12.8823 25.5219L16.4147 26.0349C16.5821 26.0592 16.7393 26.1298 16.8685 26.2389C16.9978 26.3479 17.0939 26.4909 17.146 26.6518C17.1981 26.8127 17.2042 26.9849 17.1634 27.149C17.1227 27.3131 17.0368 27.4626 16.9155 27.5804L14.3604 30.0722L14.9625 33.5902C14.9914 33.7569 14.9729 33.9285 14.9093 34.0853C14.8456 34.2422 14.7392 34.378 14.6022 34.4774C14.4652 34.5769 14.3031 34.6359 14.1343 34.6479C13.9654 34.6598 13.7966 34.6242 13.647 34.545L10.4899 32.8855L7.32947 34.5463C7.19925 34.6146 7.05449 34.6504 6.90747 34.6507ZM6.64168 27.5648L8.22553 29.108C8.331 29.2106 8.40976 29.3374 8.45492 29.4773C8.50007 29.6173 8.51026 29.7663 8.48459 29.9111L8.11025 32.0871L10.0658 31.0587C10.1963 30.9908 10.3413 30.9553 10.4884 30.9553C10.6355 30.9553 10.7804 30.9908 10.9109 31.0587L12.8639 32.0858L12.4919 29.9098C12.4665 29.7648 12.477 29.6159 12.5224 29.4759C12.5678 29.3359 12.6468 29.2092 12.7525 29.1067L14.3327 27.5635L12.1468 27.2459C12.0017 27.2247 11.8639 27.1684 11.7453 27.0821C11.6268 26.9957 11.531 26.8818 11.4663 26.7501L10.4907 24.7707L9.51173 26.7514C9.447 26.883 9.35123 26.997 9.23267 27.0833C9.11412 27.1697 8.97633 27.226 8.8312 27.2472L6.64168 27.5648Z" fill="#515151"/>
</g>
</g>
<defs>
<clipPath id="clip0_227_22679">
<rect width="79.3755" height="72" fill="white"/>
</clipPath>
</defs>
</svg>
