<svg width="72" height="72" viewBox="0 0 72 72" fill="none" xmlns="http://www.w3.org/2000/svg">
<g clip-path="url(#clip0_227_22668)">
<path d="M35.9986 71.9992C28.8786 71.9989 21.9186 69.8873 15.9987 65.9315C10.0788 61.9756 5.46485 56.3531 2.74037 49.775C0.0158783 43.1969 -0.696812 35.9586 0.692417 28.9755C2.08165 21.9924 5.5104 15.578 10.5451 10.5435C15.5798 5.50903 21.9943 2.08055 28.9775 0.691625C35.9607 -0.697302 43.199 0.015701 49.7769 2.74047C56.3549 5.46524 61.9772 10.0794 65.9328 15.9995C69.8884 21.9195 71.9997 28.8796 71.9997 35.9996C71.9889 45.5443 68.1924 54.6948 61.4432 61.4438C54.6939 68.1927 45.5432 71.9888 35.9986 71.9992Z" fill="#FAF9F7"/>
<path d="M48.9765 31.2488C48.9079 31.2489 48.8395 31.2395 48.7734 31.2211L35.6237 27.6076C35.4781 27.5675 35.3475 27.4853 35.2484 27.3714C35.1492 27.2574 35.0859 27.1167 35.0664 26.9669C35.0469 26.8171 35.072 26.6649 35.1386 26.5293C35.2052 26.3937 35.3104 26.2808 35.4409 26.2047L38.7988 24.2533C38.0742 22.9824 37.3856 21.76 36.7359 20.6014L33.0915 26.9128C32.9897 27.089 32.8221 27.2176 32.6255 27.2703C32.429 27.323 32.2195 27.2955 32.0432 27.1939L23.2619 22.1249C23.0858 22.0231 22.9573 21.8554 22.9046 21.6589C22.8519 21.4623 22.8794 21.2529 22.981 21.0766L29.1679 10.3602C29.3161 10.105 29.5136 9.88176 29.7489 9.70364C29.9843 9.52552 30.2527 9.39605 30.5386 9.32278C30.5856 9.30805 30.6338 9.29746 30.6826 9.29113C30.8155 9.26628 30.9504 9.25378 31.0856 9.25378H41.1679C41.8553 9.25501 42.5305 9.4362 43.1262 9.77933C43.7219 10.1225 44.2174 10.6156 44.5634 11.2096L48.7623 18.4531L51.9187 16.7094C52.0497 16.637 52.1989 16.6044 52.3482 16.6157C52.4974 16.627 52.64 16.6816 52.7586 16.773C52.8771 16.8644 52.9663 16.9884 53.0153 17.1298C53.0642 17.2712 53.0707 17.4239 53.034 17.569L49.7201 30.6697C49.678 30.8352 49.582 30.9819 49.4472 31.0868C49.3124 31.1917 49.1465 31.2487 48.9757 31.2488H48.9765ZM37.792 26.6124L48.4233 29.5342L51.1116 18.9075L48.8463 20.159C48.6709 20.2568 48.464 20.2818 48.2703 20.2284C48.0766 20.175 47.9117 20.0476 47.8112 19.8737L43.236 11.9797C43.0254 11.6179 42.7237 11.3175 42.361 11.1084C41.9982 10.8994 41.587 10.789 41.1684 10.7882H32.7059C34.49 13.4718 36.1387 16.243 37.6457 19.0914C38.5262 20.6606 39.4825 22.3641 40.507 24.1521C40.6075 24.328 40.6344 24.5365 40.5818 24.7322C40.5293 24.9278 40.4017 25.0948 40.2266 25.1968L37.792 26.6124ZM24.6941 21.1793L32.1446 25.4808L35.8608 19.0458C34.4222 16.1671 32.718 13.4291 30.7702 10.8673C30.6565 10.927 30.5619 11.0176 30.4974 11.1287L24.6941 21.1793Z" fill="#515151"/>
<path d="M30.525 55.5891H30.5151L18.1435 55.4309C17.8468 55.427 17.5538 55.3636 17.2821 55.2445C17.0103 55.1253 16.7652 54.9528 16.5614 54.7371C16.5303 54.707 16.5014 54.6746 16.475 54.6403C16.3861 54.5345 16.3074 54.4206 16.2398 54.3001L11.3098 45.5053C10.9744 44.9049 10.8022 44.2272 10.8103 43.5395C10.8185 42.8518 11.0067 42.1783 11.3562 41.5861L15.6217 34.382L12.556 32.4809C12.4289 32.4019 12.3277 32.2876 12.2647 32.1519C12.2018 32.0161 12.1799 31.865 12.2017 31.717C12.2235 31.5689 12.2881 31.4305 12.3876 31.3188C12.487 31.207 12.617 31.1267 12.7615 31.0878L25.8098 27.5724C25.9084 27.5459 26.0112 27.5394 26.1124 27.5531C26.2135 27.5669 26.3109 27.6007 26.3989 27.6526C26.4868 27.7044 26.5635 27.7733 26.6245 27.8551C26.6855 27.937 26.7296 28.0302 26.7541 28.1293L30.0319 41.3685C30.0682 41.5152 30.0603 41.6694 30.0093 41.8117C29.9582 41.954 29.8663 42.0781 29.745 42.1684C29.6238 42.2587 29.4786 42.3111 29.3276 42.3192C29.1766 42.3272 29.0266 42.2906 28.8964 42.2137L25.5535 40.2389C24.7995 41.4914 24.0689 42.6904 23.3772 43.8233L30.6635 43.9165C30.7644 43.9177 30.864 43.9388 30.9567 43.9786C31.0494 44.0184 31.1333 44.0761 31.2037 44.1484C31.2741 44.2206 31.3296 44.3061 31.3669 44.3998C31.4043 44.4935 31.4228 44.5937 31.4213 44.6945L31.2917 54.8323C31.289 55.0341 31.207 55.2267 31.0634 55.3685C30.9197 55.5103 30.726 55.5898 30.5242 55.5899L30.525 55.5891ZM17.8004 53.7868C17.9079 53.8567 18.0331 53.8947 18.1614 53.8962L29.7674 54.0446L29.8768 45.4415L22.4466 45.3471C20.6379 48.0092 19.0824 50.8347 17.8004 53.7868ZM14.8696 32.1092L17.0705 33.4745C17.241 33.5805 17.3632 33.749 17.4109 33.944C17.4587 34.139 17.4282 34.3449 17.326 34.5176L12.6767 42.3683C12.4639 42.7289 12.3494 43.1389 12.3444 43.5576C12.3393 43.9762 12.4441 44.3889 12.6481 44.7545L16.7857 52.1359C18.2527 49.2684 19.8628 46.4764 21.6099 43.7704C22.5488 42.2342 23.5681 40.5652 24.6284 38.7966C24.7326 38.6228 24.9013 38.4971 25.0977 38.4472C25.2942 38.3972 25.5024 38.427 25.677 38.53L28.1018 39.9619L25.4524 29.2585L14.8696 32.1092Z" fill="#515151"/>
<path d="M44.9094 59.8727C44.7121 59.8725 44.5224 59.7966 44.3795 59.6605L34.6039 50.3304C34.53 50.26 34.4709 50.1754 34.4301 50.0818C34.3893 49.9882 34.3676 49.8874 34.3663 49.7853C34.3649 49.6832 34.384 49.5818 34.4224 49.4872C34.4607 49.3925 34.5176 49.3065 34.5896 49.2341L44.2058 39.5625C44.313 39.4563 44.4488 39.3836 44.5967 39.3534C44.7446 39.3233 44.8981 39.3369 45.0383 39.3926C45.1782 39.4492 45.2982 39.5459 45.3834 39.6705C45.4686 39.795 45.5151 39.942 45.5171 40.0929L45.5643 43.9763C47.0243 43.9709 48.4292 43.9732 49.7579 43.9763L46.0561 37.6997C46.0049 37.6129 45.9713 37.5169 45.9572 37.4172C45.9432 37.3174 45.9489 37.2158 45.9741 37.1183C45.9993 37.0207 46.0434 36.9291 46.1041 36.8486C46.1647 36.7682 46.2405 36.7004 46.3274 36.6493L55.0599 31.4986C55.1466 31.4473 55.2427 31.4136 55.3425 31.3994C55.4423 31.3853 55.5439 31.391 55.6415 31.4162C55.7391 31.4414 55.8308 31.4856 55.9113 31.5463C55.9918 31.607 56.0595 31.683 56.1105 31.7699L62.3965 42.4284C62.5456 42.6824 62.6428 42.9636 62.6823 43.2555C62.7218 43.5474 62.7028 43.8443 62.6265 44.1288C62.6161 44.179 62.601 44.2281 62.5816 44.2756C62.5386 44.4027 62.4836 44.5254 62.4175 44.6421L57.4564 53.4197C57.1174 54.0176 56.6278 54.5163 56.0363 54.8662C55.4447 55.2161 54.7719 55.4049 54.0846 55.414L45.7119 55.5053L45.6782 59.1122C45.6759 59.3144 45.5941 59.5075 45.4504 59.6497C45.3068 59.792 45.1129 59.8719 44.9107 59.8722L44.9094 59.8727ZM36.2298 49.7611L44.1586 57.3283L44.1832 54.7394C44.1851 54.5385 44.2657 54.3465 44.4076 54.2044C44.5495 54.0623 44.7415 53.9815 44.9424 53.9794L54.0662 53.8796C54.4848 53.8742 54.8946 53.7593 55.255 53.5463C55.6154 53.3334 55.9138 53.0298 56.1204 52.6657L60.2839 45.2998C57.0697 45.534 53.8457 45.6061 50.6242 45.5159C48.8266 45.5112 46.872 45.5052 44.8111 45.5159C44.7105 45.5174 44.6107 45.4989 44.5173 45.4616C44.4239 45.4242 44.3388 45.3687 44.267 45.2982C44.1952 45.2278 44.1381 45.1438 44.099 45.0511C44.0599 44.9584 44.0396 44.8589 44.0392 44.7583L44.0048 41.9413L36.2298 49.7611ZM51.5424 43.9825C54.7566 44.1461 57.9792 44.0096 61.1681 43.5748C61.172 43.4463 61.1395 43.3193 61.0745 43.2083L55.1784 33.2107L47.7676 37.5817L51.5424 43.9825Z" fill="#515151"/>
<path d="M37.7922 26.6125L48.4235 29.5342L51.1118 18.9076L48.8465 20.159C48.671 20.2569 48.4641 20.2818 48.2705 20.2284C48.0768 20.175 47.9119 20.0476 47.8114 19.8737L43.2362 11.9797C43.0256 11.6179 42.7239 11.3175 42.3611 11.1085C41.9984 10.8994 41.5872 10.789 41.1686 10.7882H32.7061C34.4902 13.4718 36.1389 16.243 37.6459 19.0915C38.5264 20.6606 39.4827 22.3641 40.5072 24.1522C40.6076 24.3281 40.6345 24.5366 40.582 24.7322C40.5295 24.9279 40.4018 25.0949 40.2268 25.1969L37.7922 26.6125Z" fill="white"/>
<path d="M24.6938 21.1793L32.1443 25.4809L35.8605 19.0458C34.4219 16.1671 32.7177 13.4291 30.7699 10.8673C30.6562 10.927 30.5616 11.0176 30.4971 11.1287L24.6938 21.1793Z" fill="white"/>
<path d="M17.8003 53.7867C17.9078 53.8567 18.033 53.8946 18.1613 53.8962L29.7673 54.0445L29.8768 45.4415L22.4465 45.347C20.6378 48.0091 19.0823 50.8347 17.8003 53.7867Z" fill="white"/>
<path d="M14.8688 32.1092L17.0698 33.4745C17.2403 33.5805 17.3625 33.749 17.4102 33.944C17.458 34.139 17.4275 34.3449 17.3253 34.5177L12.6767 42.3683C12.464 42.7289 12.3494 43.1389 12.3444 43.5576C12.3394 43.9762 12.4441 44.3889 12.6482 44.7545L16.7858 52.1359C18.2528 49.2684 19.8629 46.4764 21.61 43.7704C22.5488 42.2342 23.5681 40.5652 24.6284 38.7966C24.7326 38.6228 24.9013 38.4971 25.0978 38.4472C25.2942 38.3972 25.5024 38.427 25.677 38.53L28.1018 39.9619L25.4524 29.2585L14.8688 32.1092Z" fill="white"/>
<path d="M36.23 49.7612L44.1587 57.3284L44.1834 54.7394C44.1852 54.5386 44.2658 54.3465 44.4078 54.2044C44.5497 54.0623 44.7417 53.9816 44.9425 53.9795L54.0664 53.8796C54.485 53.8742 54.8948 53.7593 55.2552 53.5464C55.6156 53.3334 55.9139 53.0299 56.1205 52.6658L60.2841 45.2999C57.0699 45.5341 53.8459 45.6062 50.6244 45.516C48.8267 45.5113 46.8722 45.5053 44.8113 45.516C44.7107 45.5175 44.6108 45.499 44.5174 45.4616C44.424 45.4243 44.339 45.3688 44.2672 45.2983C44.1954 45.2278 44.1383 45.1438 44.0992 45.0511C44.0601 44.9585 44.0398 44.8589 44.0394 44.7583L44.0049 41.9414L36.23 49.7612Z" fill="white"/>
<path d="M51.5424 43.9826C54.7566 44.1461 57.9792 44.0096 61.1681 43.5748C61.172 43.4463 61.1395 43.3193 61.0745 43.2084L55.1784 33.2107L47.7676 37.5817L51.5424 43.9826Z" fill="white"/>
</g>
<defs>
<clipPath id="clip0_227_22668">
<rect width="72.0008" height="72" fill="white"/>
</clipPath>
</defs>
</svg>
