<svg width="72" height="72" viewBox="0 0 72 72" fill="none" xmlns="http://www.w3.org/2000/svg">
<g clip-path="url(#clip0_227_22660)">
<path d="M35.9999 72.0001C28.8797 72.0001 21.9195 69.8887 15.9993 65.9329C10.0791 61.9771 5.46495 56.3546 2.74024 49.7764C0.0155294 43.1982 -0.697326 35.9597 0.691818 28.9764C2.08096 21.9931 5.50971 15.5785 10.5445 10.5438C15.5793 5.50915 21.9939 2.08054 28.9773 0.691544C35.9606 -0.697449 43.1991 0.0155627 49.7772 2.74041C56.3554 5.46526 61.9778 10.0796 65.9334 15.9998C69.8891 21.9201 72.0004 28.8804 72.0003 36.0005C71.9894 45.545 68.193 54.6955 61.444 61.4444C54.6949 68.1933 45.5444 71.9895 35.9999 72.0001V72.0001Z" fill="#FAF9F7"/>
<path d="M31.5694 70.7037H29.6615V52.6298C29.7807 51.8032 29.6982 50.96 29.4209 50.1722C29.1437 49.3844 28.68 48.6754 28.0694 48.1057L17.1443 38.0114C17.0028 37.8694 16.8334 37.7583 16.6468 37.6851C16.4602 37.6119 16.2605 37.5781 16.0602 37.586C15.8599 37.5938 15.6634 37.6431 15.4831 37.7306C15.3027 37.8182 15.1425 37.9422 15.0126 38.0948C14.8786 38.2173 14.7703 38.3652 14.6941 38.5299C14.6179 38.6947 14.5753 38.873 14.5687 39.0544C14.5622 39.2358 14.5919 39.4167 14.656 39.5865C14.7202 39.7563 14.8175 39.9116 14.9424 40.0434C16.3296 41.4783 23.2717 47.5526 23.3416 47.6145L22.085 49.0502C21.7972 48.7984 15.0128 42.8619 13.5709 41.3703C12.971 40.7546 12.6398 39.9261 12.6501 39.0665C12.6605 38.2069 13.0115 37.3866 13.6261 36.7856C13.9245 36.4532 14.2865 36.184 14.6906 35.9937C15.0946 35.8034 15.5327 35.6958 15.979 35.6774C16.4253 35.659 16.8707 35.7301 17.2891 35.8864C17.7075 36.0428 18.0904 36.2813 18.4152 36.5879L29.3921 46.7309C30.1898 47.4764 30.8021 48.3981 31.1803 49.4223C31.5585 50.4465 31.692 51.545 31.5702 52.63L31.5694 70.7037Z" fill="#515151"/>
<path d="M20.9885 67.2047H19.0803V58.66C19.0831 58.0041 18.9321 57.3566 18.6394 56.7695C18.3467 56.1825 17.9205 55.6722 17.3949 55.2797L9.70103 47.5513C9.1502 46.9535 8.73956 46.2404 8.49896 45.4639C8.25837 44.6874 8.19387 43.867 8.31017 43.0624L8.31224 42.5785C8.31224 40.7763 8.31017 25.8046 8.30784 23.5863C8.2634 23.1038 8.3163 22.6173 8.4634 22.1557C8.6105 21.694 8.8488 21.2666 9.16418 20.8987C9.47957 20.5309 9.8656 20.2302 10.2994 20.0143C10.7332 19.7985 11.2059 19.6719 11.6895 19.6422C12.2003 19.6366 12.7071 19.7323 13.1807 19.9238C13.6542 20.1153 14.0851 20.3989 14.4483 20.7581C14.8115 21.1172 15.0999 21.5449 15.2967 22.0163C15.4935 22.4876 15.5949 22.9934 15.595 23.5042C15.7121 24.8826 16.7727 36.5669 16.7727 36.5669L14.872 36.7397C14.872 36.7397 13.8101 25.045 13.6933 23.6661C13.5638 22.1514 12.6392 21.4955 11.7722 21.5491C11.053 21.5797 10.2137 22.1312 10.2158 23.584C10.2181 25.803 10.2204 40.7763 10.2204 42.5785L10.2181 43.0764C10.2062 44.6567 10.2352 45.3872 11.0499 46.2019L18.7438 53.9305C19.4496 54.4992 20.018 55.2199 20.4067 56.0387C20.7953 56.8576 20.9942 57.7536 20.9885 58.66V67.2047Z" fill="#515151"/>
<path d="M42.2731 70.7036H40.365V52.6298C40.2424 51.551 40.3729 50.4586 40.7462 49.4391C41.1194 48.4196 41.7251 47.5011 42.5151 46.7565L53.4948 36.6102C53.8192 36.2994 54.2026 36.0569 54.6224 35.8971C55.0422 35.7372 55.4898 35.6632 55.9387 35.6794C56.3876 35.6957 56.8286 35.8019 57.2358 35.9917C57.6429 36.1815 58.0078 36.4511 58.3088 36.7845C58.9232 37.3858 59.2739 38.2063 59.2841 39.0659C59.2943 39.9255 58.9631 40.754 58.3632 41.3697C56.9216 42.8614 50.1367 48.7978 49.8492 49.0496L48.5922 47.614C48.6624 47.552 55.6051 41.4778 56.9915 40.0436C57.1164 39.9118 57.2138 39.7563 57.278 39.5864C57.3421 39.4164 57.3718 39.2354 57.3652 39.0539C57.3586 38.8723 57.3159 38.6939 57.2396 38.5291C57.1633 38.3642 57.0549 38.2162 56.9208 38.0937C56.7885 37.9398 56.6254 37.8151 56.4421 37.7278C56.2588 37.6405 56.0592 37.5925 55.8563 37.5868C55.6533 37.5811 55.4514 37.6178 55.2635 37.6947C55.0755 37.7715 54.9057 37.8868 54.765 38.0331L43.8386 48.1321C43.2355 48.7009 42.7783 49.4066 42.5058 50.1896C42.2333 50.9726 42.1535 51.8097 42.2731 52.63V70.7036Z" fill="#515151"/>
<path d="M52.8539 67.2046H50.9454V58.66C50.9397 57.7536 51.1387 56.8575 51.5274 56.0386C51.9162 55.2197 52.4847 54.4991 53.1907 53.9305L60.8845 46.2019C61.6993 45.3872 61.7283 44.6553 61.7164 43.0764L61.7143 42.5785C61.7143 40.7763 61.7158 25.8025 61.7187 23.5839C61.7202 22.1312 60.8809 21.5796 60.1615 21.5491C59.3066 21.4973 58.3704 22.1514 58.2414 23.6668C58.1235 25.0458 57.0635 36.7397 57.0635 36.7397L55.1628 36.5669C55.1628 36.5669 56.2229 24.8818 56.3405 23.5041C56.3425 22.9941 56.4451 22.4894 56.6425 22.0191C56.8398 21.5487 57.1281 21.122 57.4906 20.7632C57.8532 20.4045 58.283 20.1208 58.7555 19.9284C59.2279 19.736 59.7336 19.6388 60.2436 19.6422C60.7274 19.6717 61.2003 19.7981 61.6342 20.0139C62.0682 20.2296 62.4544 20.5303 62.77 20.8982C63.0855 21.266 63.324 21.6935 63.4712 22.1553C63.6184 22.617 63.6713 23.1037 63.6269 23.5863C63.624 25.8053 63.6225 40.7763 63.6225 42.5785L63.6248 43.0624C63.741 43.867 63.6765 44.6874 63.4359 45.4639C63.1952 46.2404 62.7845 46.9535 62.2337 47.5513L54.5398 55.2796C54.0141 55.6721 53.5878 56.1824 53.295 56.7694C53.0022 57.3565 52.8511 58.004 52.8539 58.66V67.2046Z" fill="#515151"/>
<path d="M35.9668 11.2896L40.3267 20.1233L50.0722 21.5377L43.0208 28.413L44.6839 38.1197L35.9668 33.5371L27.2496 38.1197L28.9154 28.413L21.8613 21.5377L31.6095 20.1233L35.9668 11.2896Z" fill="white"/>
<path d="M44.6848 39.0912C44.5275 39.0912 44.3725 39.053 44.2333 38.9798L35.9671 34.6355L27.7007 38.9806C27.5403 39.0646 27.3595 39.1021 27.1788 39.0889C26.9981 39.0756 26.8248 39.0121 26.6782 38.9056C26.5317 38.7991 26.4179 38.6537 26.3496 38.4859C26.2813 38.3181 26.2613 38.1346 26.2917 37.956L27.8704 28.7526L21.184 22.2343C21.054 22.1078 20.962 21.9473 20.9185 21.7712C20.875 21.5951 20.8816 21.4103 20.9377 21.2377C20.9938 21.0652 21.0971 20.9118 21.2358 20.7949C21.3746 20.678 21.5433 20.6023 21.7228 20.5764L30.963 19.2329L35.0954 10.8593C35.185 10.7078 35.3125 10.5824 35.4653 10.4952C35.6181 10.408 35.7911 10.3622 35.967 10.3622C36.143 10.3622 36.3159 10.408 36.4687 10.4952C36.6215 10.5824 36.749 10.7078 36.8386 10.8593L40.971 19.2329L50.2125 20.5764C50.392 20.6023 50.5607 20.678 50.6995 20.7949C50.8382 20.9118 50.9415 21.0652 50.9976 21.2377C51.0537 21.4103 51.0603 21.5951 51.0168 21.7712C50.9733 21.9473 50.8813 22.1078 50.7513 22.2343L44.0649 28.7526L45.6433 37.956C45.667 38.0955 45.66 38.2385 45.6227 38.375C45.5855 38.5115 45.5189 38.6383 45.4277 38.7464C45.3364 38.8546 45.2227 38.9415 45.0944 39.0012C44.9661 39.0609 44.8263 39.0918 44.6848 39.092V39.0912ZM35.9671 32.5654C36.1245 32.5652 36.2795 32.6034 36.4187 32.6768L43.3947 36.3452L42.0627 28.5788C42.036 28.4235 42.0475 28.2641 42.0962 28.1142C42.1449 27.9644 42.2293 27.8287 42.3422 27.7187L47.9862 22.2177L40.1869 21.0833C40.0308 21.0611 39.8824 21.0011 39.7548 20.9085C39.6272 20.8159 39.5241 20.6935 39.4545 20.552L35.9671 13.4851L32.4798 20.552C32.4101 20.6935 32.307 20.8158 32.1794 20.9084C32.0518 21.001 31.9035 21.061 31.7474 21.0833L23.9499 22.2167L29.5918 27.7187C29.7047 27.8288 29.789 27.9645 29.8377 28.1144C29.8864 28.2643 29.898 28.4237 29.8713 28.5791L28.5396 36.3455L35.5161 32.6775C35.6552 32.6043 35.81 32.5661 35.9671 32.5661V32.5654Z" fill="#515151"/>
</g>
<defs>
<clipPath id="clip0_227_22660">
<rect width="72" height="72" fill="white"/>
</clipPath>
</defs>
</svg>
