<svg width="72" height="72" viewBox="0 0 72 72" fill="none" xmlns="http://www.w3.org/2000/svg">
<g clip-path="url(#clip0_227_22698)">
<path d="M36.013 72C28.8881 72.0052 21.9218 69.8967 15.9955 65.9416C10.0693 61.9864 5.44936 56.3622 2.72042 49.7806C-0.00852807 43.199 -0.723888 35.9559 0.664854 28.9677C2.0536 21.9794 5.48403 15.5601 10.5221 10.5221C15.5601 5.48403 21.9794 2.0536 28.9677 0.664854C35.9559 -0.723888 43.199 -0.00852807 49.7806 2.72042C56.3622 5.44936 61.9864 10.0693 65.9416 15.9955C69.8967 21.9218 72.0052 28.8881 72 36.013C71.9863 45.5531 68.1904 54.6986 61.4445 61.4445C54.6986 68.1904 45.5531 71.9863 36.013 72Z" fill="#FAF9F7"/>
<path d="M36.9714 9.7157H35.0542V71.0414H36.9714V9.7157Z" fill="#515151"/>
<path d="M16.2102 35.2633L14.9727 36.7277L35.3948 53.9857L36.6323 52.5213L16.2102 35.2633Z" fill="#515151"/>
<path d="M36.0132 36.9457C34.7435 36.946 33.4865 36.6927 32.316 36.2007C31.1455 35.7086 30.0851 34.9877 29.197 34.0803C28.3089 33.1729 27.611 32.0972 27.1442 30.9164C26.6774 29.7356 26.4512 28.4735 26.4788 27.2041C26.4788 23.4214 28.5256 20.0274 31.6605 14.8975L33.1373 12.3066C35.0805 9.04216 35.2877 8.67944 36.065 8.67944V10.5967C36.246 10.5998 36.4215 10.5351 36.5573 10.4153C35.9179 11.341 35.3298 12.3011 34.7955 13.2912L33.2928 15.882C30.2097 20.9083 28.4997 23.9655 28.4997 27.2041C28.4718 28.2193 28.6487 29.2297 29.0196 30.175C29.3906 31.1204 29.9481 31.9814 30.6589 32.7067C31.3697 33.4321 32.2193 34.0068 33.157 34.3968C34.0947 34.7868 35.1013 34.984 36.1168 34.9767L36.0132 36.9457Z" fill="#515151"/>
<path d="M36.0128 36.9458V35.0544C37.0262 35.0583 38.03 34.8585 38.9646 34.467C39.8993 34.0754 40.7458 33.5001 41.4538 32.7751C42.1618 32.0502 42.717 31.1904 43.0864 30.2467C43.4558 29.3031 43.6318 28.2948 43.604 27.2818C43.604 24.0433 41.7904 20.9861 38.7591 15.9339L37.2823 13.343C36.4014 11.8662 35.7019 10.7522 35.4946 10.4672C35.6383 10.5908 35.8234 10.6556 36.0128 10.6485V8.7572C36.7641 8.7572 36.9714 9.11992 38.9146 12.3844L40.3914 14.9753C43.4745 20.157 45.5731 23.4992 45.5731 27.2818C45.5903 28.547 45.3555 29.8028 44.8824 30.9763C44.4094 32.1498 43.7075 33.2173 42.8176 34.1168C41.9278 35.0163 40.8679 35.7296 39.6996 36.2153C38.5313 36.701 37.278 36.9493 36.0128 36.9458Z" fill="#515151"/>
<path d="M25.0277 50.7809C23.3541 50.7642 21.7397 50.1588 20.4678 49.071C18.421 47.361 17.5142 44.7442 16.1151 40.7802L15.5451 38.863C14.6124 36.2721 14.5088 35.9612 14.9492 35.4171L16.426 36.6348C16.4937 36.5573 16.5447 36.4667 16.5759 36.3686C16.6071 36.2706 16.6178 36.1672 16.6074 36.0648C16.6074 36.2721 16.9701 37.1789 17.3328 38.2152L18.0065 40.1066C19.3278 43.9151 20.131 46.1951 21.7891 47.5683C22.3143 48.0434 22.9353 48.4003 23.6102 48.6149C24.2851 48.8294 24.9982 48.8966 25.7013 48.8119C26.951 48.6355 28.0934 48.009 28.914 47.0501L30.3649 48.2678C29.2482 49.6095 27.6657 50.4794 25.9345 50.7032L25.0277 50.7809Z" fill="#515151"/>
<path d="M30.2871 48.2937L28.8362 47.076C29.6192 46.1024 30.0241 44.8787 29.9762 43.6302C29.9366 42.9196 29.7449 42.2257 29.4142 41.5955C29.0834 40.9653 28.6213 40.4134 28.059 39.9771C25.637 38.5134 22.8813 37.693 20.0532 37.5935L18.136 37.2826C17.392 37.1313 16.6391 37.0274 15.8819 36.9717C16.0961 36.9406 16.2905 36.8295 16.426 36.6608L14.9492 35.4431C15.3897 34.899 15.7524 34.9508 18.4469 35.4431L20.4159 35.754C24.5613 36.4017 27.3076 36.8421 29.3544 38.5521C30.1099 39.1656 30.7302 39.9289 31.1761 40.794C31.622 41.659 31.8839 42.6071 31.9453 43.5784C31.9946 45.3011 31.4038 46.981 30.2871 48.2937Z" fill="#515151"/>
<path d="M55.7885 35.2835L35.3604 52.5344L36.5973 53.9992L57.0255 36.7483L55.7885 35.2835Z" fill="#515151"/>
<path d="M46.9724 50.7809H46.1174C44.3878 50.5523 42.8069 49.6832 41.687 48.3455L43.1638 47.1278C43.9844 48.0868 45.1268 48.7132 46.3765 48.8896C47.0795 48.9726 47.7922 48.9047 48.4668 48.6902C49.1415 48.4757 49.7626 48.1197 50.2887 47.646C51.9468 46.2729 52.75 43.9929 54.0713 40.1843L54.7449 38.293C55.1077 37.2567 55.4186 36.3499 55.4445 36.1426C55.4416 36.3515 55.5153 36.5543 55.6517 36.7126L57.1026 35.4949C57.569 36.039 57.4394 36.3499 56.5326 38.9148L55.859 40.8061C54.4859 44.7702 53.5791 47.3869 51.5064 49.1228C50.234 50.1863 48.6306 50.7727 46.9724 50.7809Z" fill="#515151"/>
<path d="M41.6872 48.2937C40.584 46.9575 40.0203 45.2571 40.1068 43.5265C40.1666 42.5548 40.4278 41.6063 40.8739 40.741C41.3199 39.8757 41.941 39.1126 42.6977 38.5002C44.7704 36.7902 47.4908 36.3498 51.6361 35.7021L53.6311 35.3912C56.222 34.9507 56.6624 34.8989 57.1029 35.3912L55.652 36.6089C55.7794 36.774 55.9645 36.885 56.1701 36.9198C55.422 36.9795 54.678 37.0833 53.942 37.2307L51.947 37.5416C49.111 37.6424 46.3472 38.4626 43.9154 39.9252C43.3855 40.3315 42.9438 40.8415 42.6172 41.424C42.2906 42.0064 42.0859 42.6493 42.0156 43.3133C41.9453 43.9774 42.0109 44.6489 42.2083 45.2868C42.4058 45.9247 42.7309 46.5158 43.164 47.0241L41.6872 48.2937Z" fill="#515151"/>
</g>
<defs>
<clipPath id="clip0_227_22698">
<rect width="72" height="72" fill="white"/>
</clipPath>
</defs>
</svg>
